<svg width="20" height="20" viewBox="0 0 20 20" fill="none" xmlns="http://www.w3.org/2000/svg">
<path d="M17.2038 11.2725L16.875 11.0825C16.4838 10.8569 16.25 10.4519 16.25 10C16.25 9.54813 16.4838 9.14313 16.875 8.9175L17.2038 8.7275C18.1013 8.20875 18.4081 7.06375 17.89 6.16625L17.265 5.08375C16.7481 4.18813 15.5988 3.88063 14.7038 4.3975L14.375 4.58688C13.9838 4.81313 13.5156 4.81313 13.125 4.58688C12.7338 4.36063 12.5 3.95625 12.5 3.50438V3.125C12.5 2.09125 11.6588 1.25 10.625 1.25H9.37501C8.34126 1.25 7.50001 2.09125 7.50001 3.125V3.505C7.50001 3.95688 7.26626 4.36125 6.87501 4.5875C6.48376 4.81313 6.01626 4.81375 5.62501 4.5875L5.29626 4.3975C4.40126 3.88063 3.25188 4.18813 2.73438 5.08375L2.10938 6.16625C1.59126 7.06375 1.89813 8.20938 2.79563 8.7275L3.12501 8.9175C3.51626 9.14313 3.75001 9.54813 3.75001 10C3.75001 10.4519 3.51626 10.8569 3.12501 11.0825L2.79626 11.2725C1.89876 11.7906 1.59188 12.9363 2.11001 13.8338L2.73501 14.9163C3.25251 15.8119 4.40188 16.1194 5.29626 15.6025L5.62501 15.4131C6.01626 15.1863 6.48376 15.1875 6.87501 15.4131C7.26626 15.6394 7.50001 16.0438 7.50001 16.4956V16.875C7.50001 17.9088 8.34126 18.75 9.37501 18.75H10.625C11.6588 18.75 12.5 17.9088 12.5 16.875V16.495C12.5 16.0431 12.7338 15.6388 13.125 15.4125C13.5156 15.1869 13.9838 15.1863 14.375 15.4125L14.7038 15.6025C15.5988 16.1188 16.7481 15.8113 17.265 14.9163L17.89 13.8338C18.4081 12.9363 18.1013 11.7906 17.2038 11.2725ZM10 13.125C8.27689 13.125 6.87501 11.7231 6.87501 10C6.87501 8.27688 8.27689 6.875 10 6.875C11.7231 6.875 13.125 8.27688 13.125 10C13.125 11.7231 11.7231 13.125 10 13.125Z" fill="#001583"/>
</svg>
