<svg width="133" height="66" viewBox="0 0 133 66" fill="none" xmlns="http://www.w3.org/2000/svg">
<path d="M17.2037 37.2725L16.875 37.0825C16.4837 36.8569 16.25 36.4519 16.25 36C16.25 35.5481 16.4837 35.1431 16.875 34.9175L17.2037 34.7275C18.1012 34.2088 18.4081 33.0638 17.89 32.1663L17.265 31.0838C16.7481 30.1881 15.5987 29.8806 14.7037 30.3975L14.375 30.5869C13.9837 30.8131 13.5156 30.8131 13.125 30.5869C12.7337 30.3606 12.5 29.9563 12.5 29.5044V29.125C12.5 28.0913 11.6587 27.25 10.625 27.25H9.375C8.34125 27.25 7.5 28.0913 7.5 29.125V29.505C7.5 29.9569 7.26625 30.3613 6.875 30.5875C6.48375 30.8131 6.01624 30.8138 5.62499 30.5875L5.29624 30.3975C4.40124 29.8806 3.25187 30.1881 2.73437 31.0838L2.10937 32.1663C1.59124 33.0638 1.89812 34.2094 2.79562 34.7275L3.12499 34.9175C3.51624 35.1431 3.74999 35.5481 3.74999 36C3.74999 36.4519 3.51624 36.8569 3.12499 37.0825L2.79624 37.2725C1.89874 37.7906 1.59187 38.9363 2.10999 39.8338L2.73499 40.9163C3.25249 41.8119 4.40187 42.1194 5.29624 41.6025L5.62499 41.4131C6.01624 41.1863 6.48375 41.1875 6.875 41.4131C7.26625 41.6394 7.5 42.0438 7.5 42.4956V42.875C7.5 43.9088 8.34125 44.75 9.375 44.75H10.625C11.6587 44.75 12.5 43.9088 12.5 42.875V42.495C12.5 42.0431 12.7337 41.6388 13.125 41.4125C13.5156 41.1869 13.9837 41.1863 14.375 41.4125L14.7037 41.6025C15.5987 42.1188 16.7481 41.8113 17.265 40.9163L17.89 39.8338C18.4081 38.9363 18.1012 37.7906 17.2037 37.2725ZM10 39.125C8.27687 39.125 6.875 37.7231 6.875 36C6.875 34.2769 8.27687 32.875 10 32.875C11.7231 32.875 13.125 34.2769 13.125 36C13.125 37.7231 11.7231 39.125 10 39.125Z" fill="#001583"/>
<path d="M40.2037 11.2725L39.875 11.0825C39.4837 10.8569 39.25 10.4519 39.25 10C39.25 9.54813 39.4837 9.14313 39.875 8.9175L40.2037 8.7275C41.1012 8.20875 41.4081 7.06375 40.89 6.16625L40.265 5.08375C39.7481 4.18813 38.5987 3.88063 37.7037 4.3975L37.375 4.58688C36.9837 4.81313 36.5156 4.81313 36.125 4.58688C35.7337 4.36063 35.5 3.95625 35.5 3.50438V3.125C35.5 2.09125 34.6587 1.25 33.625 1.25H32.375C31.3412 1.25 30.5 2.09125 30.5 3.125V3.505C30.5 3.95688 30.2662 4.36125 29.875 4.5875C29.4837 4.81313 29.0162 4.81375 28.625 4.5875L28.2962 4.3975C27.4012 3.88063 26.2519 4.18813 25.7344 5.08375L25.1094 6.16625C24.5912 7.06375 24.8981 8.20938 25.7956 8.7275L26.125 8.9175C26.5162 9.14313 26.75 9.54813 26.75 10C26.75 10.4519 26.5162 10.8569 26.125 11.0825L25.7962 11.2725C24.8987 11.7906 24.5919 12.9363 25.11 13.8338L25.735 14.9163C26.2525 15.8119 27.4019 16.1194 28.2962 15.6025L28.625 15.4131C29.0162 15.1863 29.4837 15.1875 29.875 15.4131C30.2662 15.6394 30.5 16.0438 30.5 16.4956V16.875C30.5 17.9088 31.3412 18.75 32.375 18.75H33.625C34.6587 18.75 35.5 17.9088 35.5 16.875V16.495C35.5 16.0431 35.7337 15.6388 36.125 15.4125C36.5156 15.1869 36.9837 15.1863 37.375 15.4125L37.7037 15.6025C38.5987 16.1188 39.7481 15.8113 40.265 14.9163L40.89 13.8338C41.4081 12.9363 41.1012 11.7906 40.2037 11.2725ZM33 13.125C31.2769 13.125 29.875 11.7231 29.875 10C29.875 8.27688 31.2769 6.875 33 6.875C34.7231 6.875 36.125 8.27688 36.125 10C36.125 11.7231 34.7231 13.125 33 13.125Z" fill="#5D8AA3"/>
<path d="M12.85 11C12.85 11.9667 12.8167 13.25 12.75 14.85L12.7 18.1C12.7 21.2667 12.9333 23.9167 13.4 26.05C14.0667 29.05 15.0667 31.3667 16.4 33C17.6333 34.4333 19.15 35.15 20.95 35.15C22.35 35.15 23.6 34.7333 24.7 33.9C25.8 33.0333 26.65 31.9667 27.25 30.7C28.25 28.6333 28.75 26.0833 28.75 23.05C28.75 21.2167 28.6333 19.05 28.4 16.55C28.2 13.75 28.1 11.65 28.1 10.25C28.1 9.51666 28.5333 9.05 29.4 8.85C30.2667 8.61666 31.1667 8.5 32.1 8.5C32.4333 8.5 32.8167 8.71666 33.25 9.15C33.6833 9.58333 33.9 10.05 33.9 10.55C33.9 11.55 33.85 12.5 33.75 13.4C33.6833 14.4 33.65 15.1 33.65 15.5C33.65 16.7667 33.7167 18.5333 33.85 20.8C33.8833 21.3667 33.9167 22.05 33.95 22.85C33.9833 23.65 34 24.5667 34 25.6C34 27.8667 33.45 30.1333 32.35 32.4C31.2833 34.6333 29.7833 36.4833 27.85 37.95C25.9167 39.3833 23.7333 40.1 21.3 40.1C17.5667 40.1 14.65 38.9 12.55 36.5C10.45 34.0667 9.01667 30.9333 8.25 27.1C7.81667 24.9 7.53333 22.6 7.4 20.2C7.3 17.8 7.25 14.5833 7.25 10.55C7.25 10.0167 7.5 9.51667 8 9.05C8.53333 8.58333 9.1 8.35 9.7 8.35C11.8 8.35 12.85 9.23333 12.85 11ZM62.6043 36.15C62.771 36.2167 63.0376 36.3 63.4043 36.4C63.771 36.5 64.0376 36.6 64.2043 36.7C64.371 36.8 64.4543 36.95 64.4543 37.15C64.4876 37.95 64.1876 38.6167 63.5543 39.15C62.9543 39.65 62.2376 39.9 61.4043 39.9C60.1043 39.9 59.0876 39.55 58.3543 38.85C57.621 38.15 57.0876 37.0833 56.7543 35.65C56.621 35.0833 56.5543 34.3 56.5543 33.3C56.5543 32.7333 56.5876 31.8167 56.6543 30.55C56.721 29.2167 56.7543 28.15 56.7543 27.35C56.7543 26.1833 56.421 25.1667 55.7543 24.3C55.121 23.4 54.221 22.95 53.0543 22.95C52.3543 22.95 51.621 23.1667 50.8543 23.6C50.0876 24 49.5543 24.5 49.2543 25.1C48.7543 26.0667 48.4043 27.1167 48.2043 28.25C47.8376 30.25 47.6543 32.3333 47.6543 34.5C47.6543 35.5333 47.671 36.3333 47.7043 36.9C47.7043 37.0333 47.7043 37.3 47.7043 37.7C47.7376 38.0667 47.7043 38.4167 47.6043 38.75C47.5376 39.05 47.4043 39.3333 47.2043 39.6C47.0376 39.7667 46.771 39.9 46.4043 40C46.071 40.1333 45.7543 40.2 45.4543 40.2C44.9876 40.2 44.4043 40 43.7043 39.6C43.0043 39.2 42.6043 38.75 42.5043 38.25L42.4543 37.4C42.4543 37.1 42.4876 36.75 42.5543 36.35C42.9543 34.0167 43.1543 31.9833 43.1543 30.25C43.1543 29.4833 43.1376 28.8833 43.1043 28.45L43.0543 26.1C43.0543 25.3 42.8543 24.5333 42.4543 23.8C42.0543 23.0333 41.5876 22.65 41.0543 22.65C40.8876 22.65 40.6543 22.7167 40.3543 22.85C40.0543 22.95 39.8043 23 39.6043 23C39.271 23 38.9043 22.8333 38.5043 22.5C38.1376 22.1667 37.9543 21.8167 37.9543 21.45C37.9543 20.75 38.1876 20.1833 38.6543 19.75C39.1543 19.35 39.6376 19.0333 40.1043 18.8C40.6043 18.5667 41.171 18.45 41.8043 18.45C42.3376 18.45 42.771 18.5 43.1043 18.6C43.4376 18.7 43.8876 18.9167 44.4543 19.25C44.7543 19.4167 45.1043 19.7833 45.5043 20.35C45.9043 20.9167 46.2376 21.7167 46.5043 22.75C47.371 21.15 48.4376 20.0333 49.7043 19.4C51.0043 18.7333 52.6543 18.4 54.6543 18.4C55.421 18.4 56.2376 18.65 57.1043 19.15C58.0043 19.65 58.771 20.2333 59.4043 20.9C60.0043 21.6333 60.5043 22.55 60.9043 23.65C61.3043 24.7167 61.5043 25.6833 61.5043 26.55C61.5043 27.05 61.471 27.8667 61.4043 29C61.3043 29.9 61.2543 30.85 61.2543 31.85C61.2543 34.1833 61.7043 35.6167 62.6043 36.15ZM90.8258 37.6C90.8258 38.3333 90.4258 38.95 89.6258 39.45C88.8591 39.95 88.1424 40.2 87.4758 40.2C86.2091 40.2 85.1924 40.05 84.4258 39.75C83.6924 39.4167 83.0091 38.8167 82.3758 37.95C81.5091 38.7167 80.3258 39.3 78.8258 39.7C77.3258 40.0667 75.9424 40.25 74.6758 40.25C72.6091 40.25 70.9091 39.7 69.5758 38.6C68.2424 37.4667 67.5758 35.8167 67.5758 33.65C67.5758 32.7167 67.8258 31.8667 68.3258 31.1C68.8258 30.3 69.5091 29.6 70.3758 29C71.3424 28.3667 72.4424 27.8833 73.6758 27.55C74.9091 27.1833 76.1924 27 77.5258 27C78.2258 27 79.0591 27.1333 80.0258 27.4C80.9924 27.6667 81.7424 27.95 82.2758 28.25V27.45C82.2758 25.65 81.8424 24.4167 80.9758 23.75C80.1091 23.05 78.7091 22.7 76.7758 22.7C76.2091 22.7 75.6424 22.8167 75.0758 23.05C74.5424 23.2833 73.9258 23.6 73.2258 24C72.2924 24.5 71.4091 24.75 70.5758 24.75C70.2758 24.75 69.9924 24.55 69.7258 24.15C69.4591 23.7167 69.3258 23.3333 69.3258 23C69.3258 22.0333 69.7758 21.2 70.6758 20.5C71.6091 19.8 72.7091 19.2833 73.9758 18.95C75.2424 18.5833 76.3758 18.4 77.3758 18.4C78.3758 18.4 79.5258 18.6 80.8258 19C82.1258 19.3667 83.1924 19.8833 84.0258 20.55C85.0258 21.4167 85.7924 22.4333 86.3258 23.6C86.8924 24.7333 87.1758 25.9833 87.1758 27.35C87.1758 27.7833 87.1424 28.4333 87.0758 29.3C87.0091 30.2333 86.9758 31.0333 86.9758 31.7C86.9758 32 86.9424 32.45 86.8758 33.05C86.8091 33.7833 86.7758 34.3667 86.7758 34.8C86.7758 35.2 86.9258 35.55 87.2258 35.85C87.5258 36.1167 87.8758 36.25 88.2758 36.25L89.6758 36.2C90.0424 36.2 90.3258 36.3333 90.5258 36.6C90.7258 36.8667 90.8258 37.2 90.8258 37.6ZM74.7258 36.3C76.1591 36.3 77.3591 36.15 78.3258 35.85C79.2924 35.55 80.4591 35 81.8258 34.2C81.9591 33.6333 82.0424 32.8833 82.0758 31.95C80.2424 31.0833 78.7258 30.65 77.5258 30.65C76.1591 30.65 74.9424 30.9 73.8758 31.4C72.8091 31.9 72.2758 32.7833 72.2758 34.05C72.2758 34.6833 72.5424 35.2167 73.0758 35.65C73.6091 36.0833 74.1591 36.3 74.7258 36.3ZM119.161 7.9C120.328 8 121.344 8.31666 122.211 8.85C123.078 9.35 123.511 10.1167 123.511 11.15C123.511 11.9167 123.144 12.5333 122.411 13C121.711 13.4333 120.861 13.65 119.861 13.65C118.894 13.65 118.228 13.4 117.861 12.9C117.494 12.4 117.311 11.8833 117.311 11.35C117.311 10.35 117.411 9.51666 117.611 8.85C117.844 8.18333 118.361 7.86667 119.161 7.9ZM123.161 30.05V31.5C123.161 32.8 123.194 34.0333 123.261 35.2C123.361 36.3333 123.478 37.4833 123.611 38.65C123.611 39.05 123.378 39.4167 122.911 39.75C122.444 40.05 122.011 40.2 121.611 40.2C120.978 40.2 120.328 40.0833 119.661 39.85C119.028 39.5833 118.644 39.2667 118.511 38.9C118.311 37.8333 118.211 36.8833 118.211 36.05C118.211 33.3167 118.128 30.25 117.961 26.85C117.828 23.85 117.761 21.75 117.761 20.55C117.761 19.95 118.061 19.4333 118.661 19C119.261 18.5667 119.894 18.35 120.561 18.35C121.528 18.35 122.194 18.5667 122.561 19C122.961 19.4333 123.161 20.1167 123.161 21.05V30.05Z" fill="white"/>
<path d="M95.8879 38.4442H97.2876V37.3278H98.6873V35.6533" stroke="white" stroke-linecap="round"/>
<path d="M110.053 31.0136C113.688 71.8941 99.325 67.2442 100.163 58.6126" stroke="white" stroke-width="3" stroke-linecap="round"/>
<path d="M92.1553 32.3041L94.0217 33.9787L94.4882 31.7459L95.888 33.9787L96.3545 31.1877" stroke="white" stroke-linecap="round"/>
<path d="M103 23C112.369 30.4736 106.347 37.1275 102.244 37.9618" stroke="#001583" stroke-width="4" stroke-linecap="round"/>
<path d="M109.983 28.2418C110.544 34.1505 106.874 39.2462 102.102 39.895C97.3302 40.5438 92.7974 36.5635 92.2361 30.6549C91.6748 24.7463 95.3453 19.6505 100.117 19.0017C104.889 18.3529 109.422 22.3332 109.983 28.2418Z" stroke="white" stroke-width="2"/>
<path d="M109.16 29.5157C109.596 34.1048 106.783 37.8416 103.39 38.303C99.9964 38.7644 96.5545 35.878 96.1185 31.289C95.6826 26.6999 98.4953 22.9631 101.889 22.5017C105.282 22.0402 108.724 24.9266 109.16 29.5157Z" stroke="white" stroke-width="3"/>
<path d="M96.4666 20L96 22.2328L97.8663 21.1164V23.3492" stroke="white" stroke-linecap="round"/>
<path d="M92.9496 24L92.8446 26.4177L95.061 24.9921L95.3782 27.6082" stroke="white" stroke-linecap="round"/>
<path d="M103.097 18.6081L101.623 18.7533L103.226 20.3716L102 21" stroke="white" stroke-linecap="round"/>
</svg>
