<svg width="1410" height="500" viewBox="0 0 1410 500" fill="none" xmlns="http://www.w3.org/2000/svg">
<rect width="1410" height="500" fill="#3B5462"/>
<rect width="1410" height="500" fill="url(#paint0_linear_119_19)" fill-opacity="0.2"/>
<rect width="1410" height="500" fill="url(#paint1_linear_119_19)" fill-opacity="0.2"/>
<g clip-path="url(#clip0_119_19)">
<path d="M1247.92 391.79L1246.69 390.808C1245.23 389.642 1244.52 387.842 1244.8 385.996C1245.08 384.15 1246.29 382.641 1248.04 381.964L1249.5 381.393C1253.5 379.834 1255.47 375.348 1253.91 371.358L1252.02 366.545C1250.46 362.564 1245.94 360.59 1241.96 362.143L1240.49 362.711C1238.75 363.392 1236.83 363.099 1235.37 361.931C1233.91 360.763 1233.2 358.965 1233.48 357.119L1233.72 355.569C1234.36 351.346 1231.44 347.384 1227.2 346.739L1222.08 345.958C1217.85 345.313 1213.88 348.225 1213.23 352.448L1213 354C1212.71 355.846 1211.5 357.352 1209.76 358.033C1208.02 358.71 1206.1 358.421 1204.64 357.252L1203.41 356.271C1200.07 353.601 1195.16 354.139 1192.49 357.475L1189.25 361.507C1186.57 364.851 1187.12 369.722 1190.47 372.399L1191.7 373.381C1193.16 374.547 1193.87 376.347 1193.59 378.193C1193.31 380.039 1192.1 381.548 1190.35 382.226L1188.89 382.797C1184.89 384.353 1182.92 388.842 1184.48 392.832L1186.37 397.644C1187.93 401.626 1192.45 403.6 1196.44 402.046L1197.9 401.478C1199.65 400.795 1201.56 401.092 1203.02 402.258C1204.49 403.427 1205.19 405.225 1204.91 407.071L1204.67 408.62C1204.03 412.844 1206.95 416.805 1211.19 417.451L1216.31 418.231C1220.55 418.876 1224.52 415.965 1225.16 411.741L1225.4 410.189C1225.68 408.343 1226.89 406.837 1228.63 406.157C1230.37 405.479 1232.29 405.769 1233.75 406.937L1234.98 407.918C1238.33 410.586 1243.23 410.047 1245.9 406.714L1249.14 402.681C1251.82 399.338 1251.27 394.467 1247.92 391.79ZM1217.25 394.861C1210.19 393.786 1205.32 387.183 1206.39 380.144C1207.46 373.105 1214.08 368.253 1221.14 369.328C1228.2 370.404 1233.07 377.006 1232 384.045C1230.93 391.085 1224.31 395.937 1217.25 394.861Z" fill="#5D8AA3" fill-opacity="0.45"/>
</g>
<g clip-path="url(#clip1_119_19)">
<path d="M955.919 104.79L954.691 103.808C953.228 102.642 952.522 100.842 952.804 98.9959C953.085 97.1499 954.295 95.6412 956.038 94.9637L957.503 94.3927C961.503 92.8337 963.473 88.3476 961.909 84.3577L960.022 79.5453C958.462 75.5638 953.944 73.5901 949.955 75.143L948.49 75.7115C946.747 76.3915 944.829 76.0993 943.369 74.9312C941.907 73.7627 941.201 71.9648 941.482 70.1188L941.718 68.5689C942.361 64.3458 939.438 60.384 935.203 59.7387L930.081 58.9584C925.846 58.3132 921.875 61.2248 921.232 65.4479L920.995 67.0003C920.714 68.8464 919.505 70.3525 917.761 71.0325C916.017 71.7101 914.101 71.4208 912.639 70.2523L911.411 69.2709C908.065 66.6006 903.165 67.1394 900.487 70.4753L897.252 74.5075C894.571 77.8506 895.115 82.7223 898.47 85.3992L899.701 86.381C901.164 87.547 901.87 89.3474 901.588 91.1934C901.307 93.0395 900.097 94.5481 898.354 95.2256L896.889 95.7966C892.889 97.3531 890.919 101.842 892.483 105.832L894.37 110.644C895.933 114.626 900.451 116.6 904.437 115.046L905.902 114.478C907.646 113.795 909.561 114.092 911.023 115.258C912.485 116.427 913.191 118.225 912.91 120.071L912.674 121.62C912.031 125.844 914.954 129.805 919.189 130.451L924.311 131.231C928.546 131.876 932.517 128.965 933.16 124.741L933.397 123.189C933.678 121.343 934.887 119.837 936.631 119.157C938.372 118.479 940.291 118.769 941.753 119.937L942.981 120.918C946.327 123.586 951.228 123.047 953.903 119.714L957.137 115.681C959.819 112.338 959.274 107.467 955.919 104.79ZM925.251 107.861C918.191 106.786 913.32 100.183 914.392 93.144C915.465 86.1046 922.081 81.2526 929.141 82.3282C936.201 83.4038 941.072 90.0059 940 97.0453C938.927 104.085 932.311 108.937 925.251 107.861Z" fill="#5D8AA3" fill-opacity="0.45"/>
</g>
<g clip-path="url(#clip2_119_19)">
<path d="M166.919 376.79L165.691 375.808C164.228 374.642 163.522 372.842 163.804 370.996C164.085 369.15 165.295 367.641 167.038 366.964L168.503 366.393C172.503 364.834 174.473 360.348 172.909 356.358L171.022 351.545C169.462 347.564 164.944 345.59 160.955 347.143L159.49 347.711C157.747 348.392 155.828 348.099 154.369 346.931C152.907 345.763 152.201 343.965 152.482 342.119L152.718 340.569C153.361 336.346 150.438 332.384 146.203 331.739L141.081 330.958C136.846 330.313 132.875 333.225 132.232 337.448L131.995 339C131.714 340.846 130.505 342.352 128.761 343.033C127.017 343.71 125.101 343.421 123.639 342.252L122.411 341.271C119.065 338.601 114.165 339.139 111.487 342.475L108.252 346.507C105.571 349.851 106.115 354.722 109.47 357.399L110.701 358.381C112.164 359.547 112.87 361.347 112.588 363.193C112.307 365.039 111.097 366.548 109.354 367.226L107.889 367.797C103.889 369.353 101.919 373.842 103.483 377.832L105.37 382.644C106.933 386.626 111.451 388.6 115.437 387.046L116.902 386.478C118.646 385.795 120.561 386.092 122.023 387.258C123.485 388.427 124.191 390.225 123.91 392.071L123.674 393.62C123.031 397.844 125.954 401.805 130.189 402.451L135.311 403.231C139.546 403.876 143.517 400.965 144.16 396.741L144.397 395.189C144.678 393.343 145.887 391.837 147.631 391.157C149.372 390.479 151.291 390.769 152.753 391.937L153.981 392.918C157.327 395.586 162.228 395.047 164.903 391.714L168.137 387.681C170.819 384.338 170.274 379.467 166.919 376.79ZM136.251 379.861C129.191 378.786 124.32 372.183 125.392 365.144C126.465 358.105 133.081 353.253 140.141 354.328C147.201 355.404 152.072 362.006 151 369.045C149.927 376.085 143.311 380.937 136.251 379.861Z" fill="#5D8AA3" fill-opacity="0.45"/>
</g>
<g clip-path="url(#clip3_119_19)">
<path d="M452.919 104.79L451.691 103.808C450.228 102.642 449.522 100.842 449.804 98.9959C450.085 97.1499 451.295 95.6412 453.038 94.9637L454.503 94.3927C458.503 92.8337 460.473 88.3476 458.909 84.3577L457.022 79.5453C455.462 75.5638 450.944 73.5901 446.955 75.143L445.49 75.7115C443.747 76.3915 441.828 76.0993 440.369 74.9312C438.907 73.7627 438.201 71.9648 438.482 70.1188L438.718 68.5689C439.361 64.3458 436.438 60.384 432.203 59.7387L427.081 58.9584C422.846 58.3132 418.875 61.2248 418.232 65.4479L417.995 67.0003C417.714 68.8464 416.505 70.3525 414.761 71.0325C413.017 71.7101 411.101 71.4208 409.639 70.2523L408.411 69.2709C405.065 66.6006 400.165 67.1394 397.487 70.4753L394.252 74.5075C391.571 77.8506 392.115 82.7223 395.47 85.3992L396.701 86.381C398.164 87.547 398.87 89.3474 398.588 91.1934C398.307 93.0395 397.097 94.5481 395.354 95.2256L393.889 95.7966C389.889 97.3531 387.919 101.842 389.483 105.832L391.37 110.644C392.933 114.626 397.451 116.6 401.437 115.046L402.902 114.478C404.646 113.795 406.561 114.092 408.023 115.258C409.485 116.427 410.191 118.225 409.91 120.071L409.674 121.62C409.031 125.844 411.954 129.805 416.189 130.451L421.311 131.231C425.546 131.876 429.517 128.965 430.16 124.741L430.397 123.189C430.678 121.343 431.887 119.837 433.631 119.157C435.372 118.479 437.291 118.769 438.753 119.937L439.981 120.918C443.327 123.586 448.228 123.047 450.903 119.714L454.137 115.681C456.819 112.338 456.274 107.467 452.919 104.79ZM422.251 107.861C415.191 106.786 410.32 100.183 411.392 93.144C412.465 86.1046 419.081 81.2526 426.141 82.3282C433.201 83.4038 438.072 90.0059 437 97.0453C435.927 104.085 429.311 108.937 422.251 107.861Z" fill="#5D8AA3" fill-opacity="0.45"/>
</g>
<defs>
<linearGradient id="paint0_linear_119_19" x1="359.844" y1="98.1445" x2="569.874" y2="509.004" gradientUnits="userSpaceOnUse">
<stop offset="0.130208" stop-color="#141414"/>
<stop offset="0.5625" stop-color="#3C63EE" stop-opacity="0.47"/>
</linearGradient>
<linearGradient id="paint1_linear_119_19" x1="1344.4" y1="478.76" x2="881.962" y2="-23.0842" gradientUnits="userSpaceOnUse">
<stop offset="0.046875"/>
<stop offset="0.359375" stop-color="#84BEF3" stop-opacity="0.77"/>
</linearGradient>
<clipPath id="clip0_119_19">
<rect x="1184.45" y="335" width="82.89" height="82.6481" transform="rotate(8.6622 1184.45 335)" fill="white"/>
</clipPath>
<clipPath id="clip1_119_19">
<rect x="892.448" y="48" width="82.89" height="82.6481" transform="rotate(8.6622 892.448 48)" fill="white"/>
</clipPath>
<clipPath id="clip2_119_19">
<rect x="103.448" y="320" width="82.89" height="82.6481" transform="rotate(8.6622 103.448 320)" fill="white"/>
</clipPath>
<clipPath id="clip3_119_19">
<rect x="389.448" y="48" width="82.89" height="82.6481" transform="rotate(8.6622 389.448 48)" fill="white"/>
</clipPath>
</defs>
</svg>
